<svg version="1.0" xmlns="http://www.w3.org/2000/svg" width="314.667" height="314.667" viewBox="0 0 236 236"><path d="M44 44.9c0 .3 6.6 20.6 14.6 45.1 8.1 24.5 16.4 50 18.6 56.7l4 12.3h28.6l13-38.8c7.1-21.3 13.2-38 13.5-37.2.3.8 5.1 15.7 10.7 33s11.1 34.1 12.2 37.2l2.1 5.8h28.3l18.4-56.3c10-30.9 18.5-56.7 18.7-57.3.3-.8-3.3-1.1-12.3-1l-12.6.1-1.4 3.5c-3.4 9-24.8 75.6-24.5 76.5.2.7-.1.7-.7 0-.6-.6-2.5-6-4.4-12-1.9-6.1-7.7-23.9-12.8-39.6l-9.3-28.6h-12.3c-8.1 0-12.4.4-12.7 1.1-.2.6-6.2 18.3-13.2 39.3-7 21.1-13 38.3-13.4 38.3-.3 0-1.9-3.9-3.4-8.8-1.6-4.8-6-18.6-9.8-30.7-8.2-25.6-10.7-33-12-36.6l-1.1-2.7-13.4.1c-7.4 0-13.4.3-13.4.6zM19.8 92.6c-1.6.8-2.8 1.6-2.8 1.7 0 .1-.4 1.6-.9 3.3-1.6 5.6 3 11.4 9 11.4 3.8 0 7.8-2.9 8.7-6.3 2.3-8.5-6-14.5-14-10.1zm-.7 31.2c-.8.3-1.1 11.8-1.1 38.3V200h14l-.3-38.2-.2-38.2-5.7-.1c-3.1 0-6.1.1-6.7.3z"/></svg>